<?xml version="1.0" standalone="no"?>
<!DOCTYPE svg PUBLIC "-//W3C//DTD SVG 20010904//EN"
 "http://www.w3.org/TR/2001/REC-SVG-20010904/DTD/svg10.dtd">
<svg version="1.0" xmlns="http://www.w3.org/2000/svg"
 width="200.000000pt" height="200.000000pt" viewBox="0 0 200.000000 200.000000"
 preserveAspectRatio="xMidYMid meet">
<metadata>
Created by potrace 1.16, written by Peter Selinger 2001-2019
</metadata>
<g transform="translate(0.000000,200.000000) scale(0.100000,-0.100000)"
fill="#000000" stroke="none">
<path d="M112 1888 c-17 -17 -17 -359 0 -376 9 -9 220 -12 889 -12 803 0 878
1 890 17 11 12 14 56 14 183 0 127 -3 171 -14 183 -12 16 -87 17 -890 17 -669
0 -880 -3 -889 -12z"/>
<path d="M122 1194 c-21 -15 -22 -21 -22 -193 0 -124 4 -181 12 -189 9 -9 220
-12 889 -12 803 0 878 1 890 17 11 12 14 57 14 185 0 166 0 170 -24 189 -22
18 -51 19 -880 19 -759 0 -859 -2 -879 -16z"/>
<path d="M122 494 c-21 -15 -22 -21 -22 -189 0 -144 3 -176 16 -189 14 -14
108 -16 883 -16 733 0 870 2 887 14 17 13 19 28 19 186 0 168 0 172 -24 191
-22 18 -51 19 -880 19 -759 0 -859 -2 -879 -16z"/>
</g>
</svg>
