<?xml version="1.0" standalone="no"?>
<!DOCTYPE svg PUBLIC "-//W3C//DTD SVG 20010904//EN"
 "http://www.w3.org/TR/2001/REC-SVG-20010904/DTD/svg10.dtd">
<svg version="1.0" xmlns="http://www.w3.org/2000/svg"
 width="512.000000pt" height="512.000000pt" viewBox="0 0 512.000000 512.000000"
 preserveAspectRatio="xMidYMid meet">
<metadata>
Created by potrace 1.16, written by Peter Selinger 2001-2019
</metadata>
<g transform="translate(0.000000,512.000000) scale(0.100000,-0.100000)"
fill="#000000" stroke="none">
<path d="M2405 4693 c-834 -69 -1538 -591 -1840 -1366 -266 -682 -157 -1444
293 -2051 73 -97 325 -366 345 -366 9 0 146 -83 247 -150 94 -62 320 -171 384
-185 33 -7 77 -20 96 -28 19 -8 64 -20 100 -26 36 -7 84 -17 107 -22 58 -13
650 -12 748 2 107 14 241 46 268 64 12 7 51 21 87 30 78 19 324 142 396 196
28 22 54 39 58 39 4 0 40 22 80 50 40 27 78 50 83 50 6 0 17 7 24 17 8 9 59
55 114 102 243 208 393 398 515 654 303 637 236 1432 -172 2041 -319 478 -821
812 -1378 916 -182 34 -394 47 -555 33z m301 -334 c632 -61 1184 -445 1460
-1014 305 -630 216 -1381 -226 -1920 -32 -38 -71 -83 -88 -99 l-30 -28 -15 28
c-54 102 -332 273 -577 354 -213 71 -430 103 -685 103 -342 -1 -644 -67 -904
-198 -130 -65 -205 -119 -316 -227 l-71 -68 -50 57 c-271 309 -421 643 -463
1035 -26 236 3 506 80 740 42 130 166 375 246 488 88 123 301 336 423 422 353
250 794 368 1216 327z"/>
<path d="M2390 3636 c-183 -41 -347 -140 -460 -279 -65 -78 -143 -239 -165
-337 -23 -100 -23 -273 0 -365 65 -264 259 -481 507 -566 455 -155 944 102
1058 556 29 113 29 309 1 420 -72 280 -295 496 -581 565 -98 23 -270 26 -360
6z"/>
</g>
</svg>
